<svg xmlns="http://www.w3.org/2000/svg" width="1280" height="780" viewBox="0 0 1280 780"><rect width="1280" height="780" fill="#f5f6f7"/><style>text{font-family:Arial,sans-serif;fill:#182632}.h{font-size:26px;font-weight:bold}.t{font-size:16px}.s{font-size:13px}</style><text x="40" y="50" class="h">MORI / A0.5 mechanical fit review</text><text x="40" y="80" class="t">Source CAD preserved. Envelopes and print trials, not an assembly release.</text><text x="40" y="125" class="h">01 / TOP VIEW: module layout conflict</text><circle cx="300" cy="400" r="277.15999999999997" fill="#edf0f2" stroke="#a5b0ba" stroke-dasharray="8 6"/><rect x="154.45000000000002" y="240.10000000000002" width="291.09999999999997" height="114.79999999999998" fill="#eea49a" stroke="#455766" stroke-width="2"/><text x="160.45000000000002" y="297.5" class="s">MCU keepout</text><rect x="247.52" y="486.51" width="104.96" height="72.97999999999999" fill="#80d5df" stroke="#455766" stroke-width="2"/><text x="253.52" y="523.0" class="s">IMU alternative</text><rect x="162.85500000000002" y="374.785" width="93.88999999999999" height="50.43" fill="#b3cbd7" stroke="#455766" stroke-width="2"/><text x="168.85500000000002" y="400.0" class="s">Servo body</text><circle cx="427.1" cy="449.2" r="11.479999999999999" fill="#af1c2d"/><circle cx="172.9" cy="449.2" r="11.479999999999999" fill="#af1c2d"/><circle cx="427.1" cy="350.8" r="11.479999999999999" fill="#af1c2d"/><circle cx="172.9" cy="350.8" r="11.479999999999999" fill="#af1c2d"/><text x="65" y="702" class="t">Red dots: existing head support posts</text><text x="65" y="727" class="t">MCU envelope / frame intersection: 640.179 mm3</text><text x="65" y="752" class="s">Circle = projected inner sphere; does not prove height clearance.</text><text x="665" y="125" class="h">02 / BATTERY TRAY TRIAL</text><rect x="861.9" y="198.3" width="136.2" height="233.39999999999998" fill="#f5d593" stroke="#936b21" stroke-width="2"/><rect x="869.1" y="205.5" width="121.80000000000001" height="219.0" fill="#f5f6f7" stroke="#936b21" stroke-width="2"/><rect x="871.5" y="208.5" width="117.0" height="213.0" fill="#8fcedc" stroke="#376e80" stroke-width="2"/><text x="670" y="475" class="t">Internal cavity: 40.6 x 73.0 mm</text><text x="670" y="500" class="s">Catalog battery: 39 x 71 x 18 mm; dimensions unconfirmed.</text><text x="670" y="522" class="s">No tray/frame or tray/pack mesh overlap in this pose.</text><text x="670" y="544" class="s">Hangers, strap strength, lead exit and pack clearance: NOT_TESTED.</text><text x="665" y="595" class="h">03 / IMU HOLE-PATTERN GAUGE</text><rect x="870.0" y="632.0" width="120" height="88" fill="#f5d593" stroke="#936b21" stroke-width="2"/><circle cx="889.36" cy="701.4" r="5.4" fill="#f5f6f7" stroke="#936b21"/><circle cx="970.64" cy="701.4" r="5.4" fill="#f5f6f7" stroke="#936b21"/><text x="665" y="750" class="s">20.32 mm hole pitch; 2.7 mm trial holes. Not a mounting bracket.</text></svg>