<svg xmlns="http://www.w3.org/2000/svg" width="900" height="520" viewBox="0 0 900 520"><rect width="900" height="520" fill="#f8faf9"/><g font-family="system-ui,PingFang SC,sans-serif" fill="#243b3c"><text x="32" y="38" font-size="22">同一工具尺寸，修正工作包络的过渡位置</text><polygon points="218.95,100.00 218.95,125.00 177.30,125.00 177.30,412.50 282.70,412.50 282.70,125.00 241.05,125.00 241.05,100.00" fill="#8b99a0" stroke="#415159" stroke-width="2"/><polygon points="648.95,100.00 648.95,150.00 643.00,170.00 627.70,212.50 607.30,280.00 607.30,412.50 712.70,412.50 712.70,280.00 692.30,212.50 677.00,170.00 671.05,150.00 671.05,100.00" fill="#edb36b" stroke="#a76218" stroke-width="2"/><text x="135" y="77" font-size="18">旧工作包络（假定）</text><text x="517" y="77" font-size="18">按官方照片细化（仍为估算）</text><path d="M350 100.0 H525" stroke="#acbdbb" stroke-dasharray="4 5"/><text x="403" y="95.0" font-size="13">0 mm</text><path d="M350 125.0 H525" stroke="#acbdbb" stroke-dasharray="4 5"/><text x="403" y="120.0" font-size="13">10 mm</text><path d="M350 150.0 H525" stroke="#acbdbb" stroke-dasharray="4 5"/><text x="403" y="145.0" font-size="13">20 mm</text><path d="M350 170.0 H525" stroke="#acbdbb" stroke-dasharray="4 5"/><text x="403" y="165.0" font-size="13">28 mm</text><path d="M350 212.5 H525" stroke="#acbdbb" stroke-dasharray="4 5"/><text x="403" y="207.5" font-size="13">45 mm</text><path d="M350 280.0 H525" stroke="#acbdbb" stroke-dasharray="4 5"/><text x="403" y="275.0" font-size="13">72 mm</text><path d="M350 412.5 H525" stroke="#acbdbb" stroke-dasharray="4 5"/><text x="403" y="407.5" font-size="13">125 mm</text><text x="32" y="463" font-size="16">厂家尺寸：A = 11 mm，B = 10 mm，D = 6.5 mm；全长 125 mm。</text><text x="32" y="491" font-size="15">两组工作包络均有余量；没有把工具缩放到机器人空间里。中间站点不是厂家标注。</text></g></svg>