<?xml version="1.0" standalone="no"?>
 <!DOCTYPE svg PUBLIC "-//W3C//DTD SVG 1.1//EN" 
 "http://www.w3.org/Graphics/SVG/1.1/DTD/svg11.dtd"> 
<svg
  xmlns:svg="http://www.w3.org/2000/svg"
  xmlns="http://www.w3.org/2000/svg"
  xmlns:xlink="http://www.w3.org/1999/xlink"
  xmlns:inkscape="http://www.inkscape.org/namespaces/inkscape"
  version="1.1"
  width="79.9846mm" height="54.9910mm" viewBox="0.0000 0.0000 79.9846 54.9910">
<title>SVG Image created as silk_back.svg date 2026-09-24T18:38:32 </title>
  <desc>Image generated by PCBNEW </desc>
<g style="fill:#000000; fill-opacity:1.0000;stroke:#000000; stroke-opacity:1.0000;
stroke-linecap:round; stroke-linejoin:round;"
 transform="translate(0 0) scale(1 1)">
</g>
<g style="fill:none; 
stroke:#D0D2CD; stroke-width:0.0500; stroke-opacity:1; 
stroke-linecap:round; stroke-linejoin:round;">
<path d="M79.9846 0.0000
L-0.0154 0.0000
" />
<path d="M79.9846 55.0000
L79.9846 0.0000
" />
<path d="M-0.0154 0.0000
L-0.0154 55.0000
" />
<path d="M-0.0154 55.0000
L79.9846 55.0000
" />
</g>
<g style="fill:#000000; fill-opacity:1.0000; stroke:none;">
<circle cx="76.9846" cy="52.0000" r="1.1000" /> 
<circle cx="44.9846" cy="6.0000" r="0.9000" /> 
<circle cx="39.9846" cy="6.0000" r="0.9000" /> 
<circle cx="75.4846" cy="46.0000" r="0.3750" /> 
<circle cx="75.4846" cy="44.0000" r="0.3750" /> 
<circle cx="75.4846" cy="31.0000" r="0.3750" /> 
<circle cx="75.4846" cy="29.0000" r="0.3750" /> 
<circle cx="2.9846" cy="3.0000" r="1.1000" /> 
<circle cx="4.9846" cy="34.0000" r="0.3750" /> 
<circle cx="4.9846" cy="32.0000" r="0.3750" /> 
<circle cx="39.9846" cy="50.0000" r="0.9000" /> 
<circle cx="34.9846" cy="50.0000" r="0.9000" /> 
<circle cx="57.9846" cy="6.0000" r="0.9000" /> 
<circle cx="52.9846" cy="6.0000" r="0.9000" /> 
<circle cx="43.4846" cy="44.5000" r="0.5000" /> 
<circle cx="40.9446" cy="44.5000" r="0.5000" /> 
<circle cx="54.9846" cy="50.0000" r="0.9000" /> 
<circle cx="49.9846" cy="50.0000" r="0.9000" /> 
<circle cx="75.4846" cy="24.0000" r="0.3750" /> 
<circle cx="75.4846" cy="22.0000" r="0.3750" /> 
<circle cx="16.9846" cy="26.0000" r="0.4750" /> 
<circle cx="14.4846" cy="26.0000" r="0.4750" /> 
<circle cx="11.9846" cy="26.0000" r="0.4750" /> 
<circle cx="2.9846" cy="52.0000" r="1.1000" /> 
<circle cx="70.9846" cy="6.0000" r="0.9000" /> 
<circle cx="65.9846" cy="6.0000" r="0.9000" /> 
<circle cx="15.9846" cy="42.5000" r="0.4750" /> 
<circle cx="13.4846" cy="42.5000" r="0.4750" /> 
<circle cx="10.9846" cy="42.5000" r="0.4750" /> 
<circle cx="66.9846" cy="50.0000" r="0.5000" /> 
<circle cx="64.4846" cy="50.0000" r="0.5000" /> 
<circle cx="14.9846" cy="50.0000" r="0.9000" /> 
<circle cx="9.9846" cy="50.0000" r="0.9000" /> 
<circle cx="4.9846" cy="43.0000" r="0.3750" /> 
<circle cx="4.9846" cy="41.0000" r="0.3750" /> 
<circle cx="4.9846" cy="39.0000" r="0.3750" /> 
<circle cx="31.9846" cy="6.0000" r="0.9000" /> 
<circle cx="26.9846" cy="6.0000" r="0.9000" /> 
<circle cx="18.9846" cy="6.0000" r="0.9000" /> 
<circle cx="13.9846" cy="6.0000" r="0.9000" /> 
<circle cx="75.4846" cy="17.0000" r="0.3750" /> 
<circle cx="75.4846" cy="15.0000" r="0.3750" /> 
<circle cx="4.9846" cy="19.0000" r="0.4750" /> 
<circle cx="4.9846" cy="16.5000" r="0.4750" /> 
<circle cx="4.9846" cy="14.0000" r="0.4750" /> 
<circle cx="27.9846" cy="22.0000" r="0.5000" /> 
<circle cx="22.9846" cy="22.0000" r="0.5000" /> 
<circle cx="35.4846" cy="27.0000" r="0.3750" /> 
<circle cx="35.4846" cy="29.0000" r="0.3750" /> 
<circle cx="35.4846" cy="31.0000" r="0.3750" /> 
<circle cx="35.4846" cy="33.0000" r="0.3750" /> 
<circle cx="35.4846" cy="35.0000" r="0.3750" /> 
<circle cx="35.4846" cy="37.0000" r="0.3750" /> 
<circle cx="35.4846" cy="39.0000" r="0.3750" /> 
<circle cx="35.4846" cy="41.0000" r="0.3750" /> 
<circle cx="76.9846" cy="3.0000" r="1.1000" /> 
<circle cx="26.9846" cy="44.0000" r="0.5000" /> 
<circle cx="21.9846" cy="44.0000" r="0.5000" /> 
<circle cx="74.9846" cy="39.5000" r="0.5000" /> 
<circle cx="77.5246" cy="39.5000" r="0.5000" /> 
</g> 
</svg>
