<svg xmlns="http://www.w3.org/2000/svg" width="680" height="576" viewBox="0 0 680 576">
<rect width="100%" height="100%" fill="#f6f8fa"/>
<text x="80" y="30" font-size="20" font-family="Arial,sans-serif" fill="#172b4d">MORI_imu_P5R4 · PORT LOCATOR · TOP COORDINATES</text>
<text x="80" y="54" font-size="13" font-family="Arial,sans-serif">F = front; B = rear (dashed). This is not the cable mating view.</text>
<rect x="80" y="80" width="520" height="416" fill="white" stroke="#64748b" stroke-width="2"/>
<circle cx="145.0" cy="405.0" r="28.6" fill="#dbe2e8" stroke="#94a3b8"/>
<circle cx="535.0" cy="405.0" r="28.6" fill="#dbe2e8" stroke="#94a3b8"/>
<rect x="137.2" y="150.2" width="405.6" height="41.599999999999994" fill="none" stroke="#2f5d8a" />
<text x="340.0" y="144.2" text-anchor="middle" font-size="14" font-family="Arial,sans-serif" font-weight="bold" fill="#2f5d8a">J1 F</text>
<circle cx="158.0" cy="171.0" r="6" fill="#2f5d8a" stroke="#2f5d8a"/>
<text x="158.0" y="174.0" text-anchor="middle" font-size="8" font-family="Arial,sans-serif" fill="#fff">1</text>
<circle cx="210.0" cy="171.0" r="6" fill="#ffffff" stroke="#2f5d8a"/>
<text x="210.0" y="174.0" text-anchor="middle" font-size="8" font-family="Arial,sans-serif" fill="#2f5d8a">2</text>
<circle cx="262.0" cy="171.0" r="6" fill="#ffffff" stroke="#2f5d8a"/>
<text x="262.0" y="174.0" text-anchor="middle" font-size="8" font-family="Arial,sans-serif" fill="#2f5d8a">3</text>
<circle cx="314.0" cy="171.0" r="6" fill="#ffffff" stroke="#2f5d8a"/>
<text x="314.0" y="174.0" text-anchor="middle" font-size="8" font-family="Arial,sans-serif" fill="#2f5d8a">4</text>
<circle cx="366.0" cy="171.0" r="6" fill="#ffffff" stroke="#2f5d8a"/>
<text x="366.0" y="174.0" text-anchor="middle" font-size="8" font-family="Arial,sans-serif" fill="#2f5d8a">5</text>
<circle cx="418.0" cy="171.0" r="6" fill="#ffffff" stroke="#2f5d8a"/>
<text x="418.0" y="174.0" text-anchor="middle" font-size="8" font-family="Arial,sans-serif" fill="#2f5d8a">6</text>
<circle cx="470.0" cy="171.0" r="6" fill="#ffffff" stroke="#2f5d8a"/>
<text x="470.0" y="174.0" text-anchor="middle" font-size="8" font-family="Arial,sans-serif" fill="#2f5d8a">7</text>
<circle cx="522.0" cy="171.0" r="6" fill="#ffffff" stroke="#2f5d8a"/>
<text x="522.0" y="174.0" text-anchor="middle" font-size="8" font-family="Arial,sans-serif" fill="#2f5d8a">8</text>
<text x="80" y="551" font-size="13" font-family="Arial,sans-serif">20 x 16 mm · CAD pin numbering · Physical cable orientation NOT_TESTED</text></svg>